<mxfile host="app.diagrams.net" modified="2024-05-08T08:47:13.029Z" agent="Mozilla/5.0 (Windows NT 10.0; Win64; x64) AppleWebKit/537.36 (KHTML, like Gecko) Chrome/124.0.0.0 Safari/537.36" etag="GlULBrt2tukna8hj4Thm" version="24.2.5" type="github">
  <diagram name="第 1 页" id="lQjxSzks06ij9digtl7g">
    <mxGraphModel dx="1050" dy="557" grid="1" gridSize="10" guides="1" tooltips="1" connect="1" arrows="1" fold="1" page="1" pageScale="1" pageWidth="827" pageHeight="1169" math="0" shadow="0">
      <root>
        <mxCell id="0" />
        <mxCell id="1" parent="0" />
        <mxCell id="g46rafBJo5akrMXSfGv9-1" value="" style="ellipse;whiteSpace=wrap;html=1;aspect=fixed;" vertex="1" parent="1">
          <mxGeometry x="230" y="200" width="240" height="240" as="geometry" />
        </mxCell>
        <mxCell id="g46rafBJo5akrMXSfGv9-2" value="神" style="ellipse;whiteSpace=wrap;html=1;aspect=fixed;fontSize=23;" vertex="1" parent="1">
          <mxGeometry x="320" y="290" width="60" height="60" as="geometry" />
        </mxCell>
        <mxCell id="g46rafBJo5akrMXSfGv9-3" value="神" style="ellipse;whiteSpace=wrap;html=1;aspect=fixed;fontSize=23;" vertex="1" parent="1">
          <mxGeometry x="320" y="80" width="60" height="60" as="geometry" />
        </mxCell>
      </root>
    </mxGraphModel>
  </diagram>
</mxfile>
